<?xml version="1.0" encoding="UTF-8"?>
<svg id="Layer_1" xmlns="http://www.w3.org/2000/svg" version="1.1" viewBox="0 0 800 800">
  <!-- Generator: Adobe Illustrator 29.8.2, SVG Export Plug-In . SVG Version: 2.1.1 Build 3)  -->
  <defs>
    <style>
      .st0 {
        fill: #f25135;
      }
    </style>
  </defs>
  <path class="st0" d="M589.65,294.92c-4.3-.44-7.47-4.3-7.03-8.64.44-4.3,4.3-7.47,8.64-7.03,9.67,1.03,18.9,4,27.34,9.08,4.1,2.44,7.96,5.37,11.62,8.79,1.66-4.05,3.71-7.81,6.05-11.33,5.22-7.71,12.01-14.06,20.02-18.7,3.76-2.2,8.59-.88,10.74,2.88,2.2,3.76.88,8.59-2.88,10.74-5.96,3.42-10.99,8.15-14.84,13.87-3.76,5.62-6.45,12.21-7.76,19.58-.29,2.1-1.37,4.05-3.22,5.37-3.52,2.54-8.45,1.71-10.99-1.81-4.93-6.93-10.64-12.21-16.85-15.92-6.4-3.86-13.43-6.1-20.85-6.88h0ZM280.62,352.49v260.79h30.27l35.25-38.77h-18.7v-23.68h57.91l-65.33-72.41,17.58-15.82,39.55,43.8v-1.71h96.83c4.25,0,8.01,2.25,10.11,5.62l28.61,40.48h53.76c3.56,0,6.79,1.56,8.94,4.1l58.89,58.4h65.72v23.68H103.42v-23.68h158.79v-260.79H109.23c-5.08,0-9.23-4.1-9.23-9.23,0-.29,0-.59.05-.93.39-46,19.58-87.55,50.39-117.68,30.42-29.64,72.12-48.24,118.21-48.88.88-.29,1.86-.44,2.83-.44s1.95.15,2.88.44c45.85.83,87.26,19.38,117.53,48.93,31.01,30.32,50.24,72.22,50.39,118.55,0,5.08-4.1,9.18-9.18,9.18v.05h-152.49ZM342.87,613.33h257.81l-39.11-38.77h-183.45l-35.25,38.77h0ZM417.24,550.83h66.46l-15.82-22.41h-70.85l20.21,22.41h0ZM509.77,201.85c-5.03.63-9.62-2.88-10.3-7.91-.63-5.03,2.88-9.62,7.91-10.3,15.92-2.1,31.3-.2,45.21,6.01,8.4,3.76,16.16,9.03,23.14,15.97,3.81-8.54,8.98-16.06,15.33-22.36,10.5-10.4,24.02-17.38,39.45-20.07,5.03-.88,9.77,2.54,10.64,7.52.88,5.03-2.54,9.77-7.52,10.64-11.62,2-21.78,7.23-29.54,14.94-7.71,7.62-13.18,17.82-15.58,29.88h-.05c-.44,2.29-1.76,4.44-3.86,5.86-4.2,2.83-9.91,1.76-12.74-2.44-7.42-10.94-16.55-18.55-26.76-23.1-10.69-4.88-22.71-6.3-35.35-4.64h0ZM379.05,237.89c-12.5-12.21-27.2-22.36-43.41-29.74,6.25,9.03,11.52,19.34,15.82,30.71,10.01,26.42,14.89,58.89,15.38,95.21h56.74c-2.44-37.5-18.99-71.24-44.53-96.19h0ZM298.14,196.53c-5.71-.98-11.52-1.66-17.43-2.05v139.6h67.77c-.44-34.08-4.98-64.36-14.21-88.72-8.2-21.73-20.12-38.57-36.13-48.83h0ZM262.26,194.43c-5.81.34-11.57.98-17.19,1.9-16.21,10.3-28.27,27.29-36.52,49.32-9.13,24.27-13.62,54.49-14.06,88.38h67.77v-139.6h0ZM207.67,207.71c-16.6,7.47-31.64,17.72-44.38,30.22-25.54,24.95-42.09,58.69-44.53,96.14h57.42c.44-36.13,5.32-68.51,15.23-94.87,4.35-11.72,9.77-22.31,16.26-31.49h0Z"/>
</svg>