<?xml version="1.0" encoding="UTF-8"?>
<svg id="Capa_1" xmlns="http://www.w3.org/2000/svg" version="1.1" viewBox="0 0 800 800">
  <!-- Generator: Adobe Illustrator 29.8.2, SVG Export Plug-In . SVG Version: 2.1.1 Build 3)  -->
  <defs>
    <style>
      .st0 {
        fill: #f25135;
      }
    </style>
  </defs>
  <path class="st0" d="M420.91,175.6l1.03,3.15c20.3,3.88,28.89,20.52,29.24,39.86,13.03-2.69,37.26,4.43,38.35,19.93.59,8.35-10.45,19.43-18.45,20-9.72.69-21.55-8.43-27.84-15.3l-2.73.42c-9.63,10.36-20.55,12.62-14.14,29.23,12.16,5.25,25.62,2.11,38.34,3.1,12.82,1,34.23,2.42,46.08,4.93,12.94,2.74,15.68,8.89,22.34,19.1,16.64,25.49,20.89,51.97,29.61,80.51.74,7.13-20.92,40.01-25.77,48.98-2.39,4.42-10.14,23.65-11.66,24.99-5.33,4.69-17.92.31-16.49-8.36,1.22-7.4,17.14-37.12,21.77-45.31,2.95-5.22,11.5-13.87,11.55-18.83-10.36-27.61-13.81-59.58-34.39-82.07-11.92,14.01-25.34,26.8-37.41,40.65-13.8,15.82-34.88,39.05-46.26,55.75-9.62,14.11.13,25.57,7.13,39.08,15.07,29.05,33.48,58.62,49.96,87.1,3.07,5.31,16.63,24.58,16.31,28.41-.77,9.06-24.08,4.01-29.51,3.92-10.88-.17-21.81.19-32.67.14-1.35,13.7-6.65,28.87-7.84,42.36-.35,3.9-1.64,9.78,2.49,11.46,16.54,5.82,40.79,7.19,56.29,13.84,10.54,4.52,8.95,9.91,3.87,18.22-2.31,3.78-28.56,33.29-31,34.43-1.75.81-3.03,1.24-4.77.05-16.82-9.16,21.88-32.11,20.75-42.32l-66.17-11.15c-9.42-11.02,11.75-52.34,11.97-66.94-29.82-2.48-59.71-6.11-89.71-4.46-2.59.58-4.06,1.92-5.92,3.65-5.6,5.2-32.37,40.3-34.66,46.65-4.59,12.71,4.27,52,4.5,68.09.03,2.47.19,4.88-.92,7.19-1.82,3.79-46.76,20.42-52.24,18.86s-5.97-11.79-2.78-14.93c4.81-4.75,37.54-9.57,38.36-12.96l-4.55-69.51,33.2-46.56-25.54-4.02.86-4.72,105.99-134.79c-14.56-42.72-32.77-84.21-54.22-123.84-8.94-8.9-67.68-33.84-69.92-42.22-1.24-4.64,3.19-12.11,5.47-16.25,10.7-19.42,29.73-40.51,43.32-58.27-6.44-8.98-14.89-14.82-18.3-25.98-4.72-15.45-1.64-14.56,12.02-17.37,33.53-6.92,88.59-16.03,122.23-18.03,7.78-.46,22.23-1.91,27.04,4.8,11.24,15.68-16.87,59.66-34.22,65.34ZM374.68,193.11c-18.35.39-31.63-9.13-48.28-14.15-5.95,4.5-44.78,55.85-42.57,58.74l63.64,32.81,62.27,2.28-1.81-15.73c-34.61-1.97-52.94-34.2-33.26-63.95Z"/>
</svg>