<?xml version="1.0" encoding="UTF-8"?>
<svg id="_x32_" xmlns="http://www.w3.org/2000/svg" version="1.1" viewBox="0 0 512 512">
  <!-- Generator: Adobe Illustrator 29.8.2, SVG Export Plug-In . SVG Version: 2.1.1 Build 3)  -->
  <defs>
    <style>
      .st0 {
        fill: #f25135;
      }
    </style>
  </defs>
  <rect class="st0" x="221.5" y="219.85" width="14.94" height="25.9"/>
  <rect class="st0" x="271.31" y="219.85" width="14.94" height="25.9"/>
  <rect class="st0" x="115.87" y="279.63" width="14.94" height="25.89"/>
  <rect class="st0" x="381.18" y="279.63" width="14.94" height="25.89"/>
  <path class="st0" d="M346.81,180.73v-71.73h-182.37v71.73H48.1v51.88h0v170.39h415.81v-222.27h-117.1ZM180.81,385.22h-114.92v-134.82h114.92v134.82h0ZM180.81,240.11h-114.92v-41.59h19.29v18.38h12.59v-18.38h19.29v18.38h12.59v-18.38h19.29v18.38h12.59v-18.38h19.29v41.59h0ZM318.72,385.22h-37.74v-42.63c0-12.77-10.36-23.12-23.12-23.12s-23.12,10.35-23.12,23.12v42.63h-42.21v-206.2h126.2v206.2h0ZM329.02,168.38h-146.8v-41.59h19.28v18.38h12.6v-18.38h19.29v18.38h12.59v-18.38h19.29v18.38h12.59v-18.38h19.29v18.38h12.59v-18.38h19.29v41.59h0ZM446.12,385.22h-114.92v-134.82h114.92v134.82h0ZM446.12,240.11h-114.92v-41.59h19.29v18.38h12.59v-18.38h19.29v18.38h12.59v-18.38h19.29v18.38h12.59v-18.38h19.29v41.59Z"/>
</svg>