<?xml version="1.0" encoding="UTF-8"?>
<svg id="Layer_1" xmlns="http://www.w3.org/2000/svg" version="1.1" viewBox="0 0 800 800">
  <!-- Generator: Adobe Illustrator 29.8.2, SVG Export Plug-In . SVG Version: 2.1.1 Build 3)  -->
  <defs>
    <style>
      .st0 {
        fill: #f25135;
      }
    </style>
  </defs>
  <path class="st0" d="M704.79,607.51c-65.36,0-104.24-17-141.85-33.44-35.85-15.67-72.92-31.88-130.29-31.88-49.55,0-97.06,19.43-138.99,36.58-36.13,14.78-70.26,28.74-100.5,28.74h-33.13c19.35-8.62,41.42-19.41,65.56-31.21,91.89-44.9,206.25-100.78,294.13-100.78,107.46,0,178.24,51.87,178.94,52.39,4.51,3.37,10.9,2.46,14.28-2.05,3.38-4.51,2.47-10.91-2.04-14.29-2.56-1.92-54.05-39.84-137.43-52.44v-17.28c18.72-3.72,32.66-17.41,32.66-33.7,0-7.97-3.88-27.52-10.15-45.22-9.17-25.88-19.87-38.46-32.71-38.46-8.97,0-16.89,6.15-23.98,18.67-2.09-12.53-6.22-29.48-11.8-45.38-11.68-33.3-24.9-49.49-40.42-49.49s-28.74,16.19-40.42,49.49c-8.23,23.48-13.33,49.27-13.33,59.71,0,21.02,18.77,38.57,43.54,42.41v49.29c-59.12-30.55-118.5-43.47-176.73-38.38-47.06,4.11-83.37,19.27-106.06,31.67-30.14-11.57-62.85-20.03-98.89-20.03-5.64,0-10.21,4.57-10.21,10.21s4.57,10.21,10.21,10.21c59.06,0,110.2,25.4,155.32,47.81,19.85,9.86,38.02,18.88,55.16,24.99-30.89,13.88-60.99,28.59-89.04,42.29-52.14,25.48-101.4,49.55-121.44,49.55-5.64,0-10.21,4.57-10.21,10.21s4.57,10.21,10.21,10.21h97.97c34.25,0,70.18-14.7,108.22-30.25,42.14-17.24,85.72-35.06,131.26-35.06,53.11,0,86.63,14.65,122.12,30.17,39.52,17.28,80.4,35.15,150.02,35.15,5.64,0,10.21-4.57,10.21-10.21s-4.57-10.21-10.21-10.21h0ZM519.74,455.11c-7.34,0-14.83.36-22.45,1.04v-56.25c9.8-1.52,18.66-5.18,25.78-10.35-1.71,7.95-2.65,14.69-2.65,18.62,0,16.28,13.93,29.98,32.66,33.7v14.8c-10.68-.99-21.8-1.55-33.34-1.55ZM548.87,372.49c6.37-19,12.23-25.94,14.41-27.41,2.19,1.46,8.04,8.4,14.41,27.41,5.17,15.43,8.04,30.88,8.04,35.67,0,5.31-5.11,10.15-12.25,12.6v-9.88c0-5.64-4.57-10.21-10.21-10.21s-10.21,4.57-10.21,10.21v9.88c-7.14-2.45-12.25-7.3-12.25-12.6,0-4.79,2.86-20.24,8.04-35.67ZM453.75,357.49c0-7.61,4.63-31.44,12.18-52.96,10.43-29.76,19.34-35.84,21.16-35.84s10.72,6.08,21.16,35.84c7.55,21.52,12.18,45.35,12.18,52.96,0,9.93-9.87,18.62-23.13,21.65v-22.68c0-5.64-4.57-10.21-10.21-10.21s-10.21,4.57-10.21,10.21v22.68c-13.26-3.03-23.13-11.72-23.13-21.65ZM259.6,472.4c-13.05-6.48-26.58-13.2-40.68-19.53,20.62-9.41,48.7-18.72,83-21.72,51.02-4.46,103.22,6.02,155.49,31.14-39.3,8.3-80.73,23.05-121.5,40.21-21.86-3.08-47.15-15.62-76.31-30.1h0Z"/>
  <path class="st0" d="M182.29,268.69h23.44c1.4,7.25,4.25,13.98,8.25,19.88l-16.58,16.58c-3.99,3.99-3.99,10.45,0,14.43,1.99,1.99,4.6,2.99,7.22,2.99s5.22-1,7.22-2.99l16.58-16.58c5.9,4,12.63,6.85,19.88,8.25v23.44c0,5.64,4.57,10.21,10.21,10.21s10.21-4.57,10.21-10.21v-23.44c7.25-1.4,13.98-4.25,19.88-8.25l16.58,16.58c1.99,1.99,4.6,2.99,7.22,2.99s5.22-1,7.22-2.99c3.99-3.99,3.99-10.45,0-14.43l-16.58-16.58c4-5.9,6.85-12.63,8.25-19.88h23.44c5.64,0,10.21-4.57,10.21-10.21s-4.57-10.21-10.21-10.21h-23.44c-1.4-7.25-4.25-13.98-8.25-19.88l16.58-16.58c3.99-3.99,3.99-10.45,0-14.43-3.99-3.99-10.45-3.99-14.43,0l-16.58,16.58c-5.9-4-12.63-6.85-19.88-8.25v-23.44c0-5.64-4.57-10.21-10.21-10.21s-10.21,4.57-10.21,10.21v23.44c-7.25,1.4-13.98,4.25-19.88,8.25l-16.58-16.58c-3.99-3.99-10.45-3.99-14.43,0-3.99,3.99-3.99,10.45,0,14.43l16.58,16.58c-4,5.9-6.85,12.63-8.25,19.88h-23.44c-5.64,0-10.21,4.57-10.21,10.21s4.57,10.21,10.21,10.21ZM258.49,225.15c18.38,0,33.34,14.96,33.34,33.34s-14.96,33.34-33.34,33.34-33.34-14.96-33.34-33.34,14.96-33.34,33.34-33.34Z"/>
</svg>