<?xml version="1.0" encoding="UTF-8"?>
<svg id="Layer_1" xmlns="http://www.w3.org/2000/svg" version="1.1" viewBox="0 0 736.97 736.97">
  <!-- Generator: Adobe Illustrator 29.8.2, SVG Export Plug-In . SVG Version: 2.1.1 Build 3)  -->
  <defs>
    <style>
      .st0 {
        fill: #f25135;
        stroke: #f25135;
        stroke-miterlimit: 10;
        stroke-width: 5px;
      }
    </style>
  </defs>
  <path class="st0" d="M675.59,606.58H99.94l-38.6-36.21h103.51c6.09-72.55,32.1-132.08,45.02-157.78-2.42-2.67-3.82-6.19-3.82-9.92,0-3.95,1.6-7.65,4.27-10.36-.07-.39-.11-.79-.11-1.2,0-3,1.91-5.5,4.99-6.86v-69.01c-.24-.5-.42-1.03-.54-1.58l-6.71-2.17,7.14-3.24c.6-2.84,3.13-4.98,6.14-4.98s5.54,2.14,6.14,4.98l6.12,2.78c2.12.12,4.42.44,6.9,1.06,6.21,1.55,10.44,4.79,14.17,7.65,3.96,3.03,6.36,4.75,9.7,4.75,2.66,0,5.13-.5,7.75-1.04,6.11-1.25,13.04-2.66,20.54,3.59,4.12,3.43,6.98,7.37,9.28,10.55,1.36,1.88,3.43,4.73,4.32,5.03,1.06-.01,3.5-2.52,4.96-4.01,2.18-2.23,4.43-4.54,7.32-5.51,5.84-1.94,10-.12,10.78.27l8.51,4.24c1.26-2.3,2.59-4.61,3.98-6.91-.46-1.08-.7-2.26-.7-3.47,0-3.29,1.79-6.18,4.44-7.74.14-3.14,1.9-5.86,4.45-7.35.05-2.15.88-4.16,2.25-5.72-1.43-9.25,3.61-15.51,10.01-18.88v-140.89c-.99-1.32-1.56-2.95-1.56-4.65,0-.08,0-.15,0-.23l-4.87-1.62,5.57-2.59s0-.05,0-.07c0-3.9,3.18-7.08,7.08-7.08s7.08,3.18,7.08,7.08v.07l5.52,2.57-4.82,1.62c0,.08,0,.17,0,.25,0,.64-.08,1.27-.23,1.88,5.66-1.12,13.47-1.55,22.87.79,9.48,2.37,16.08,7.43,21.91,11.89,6.11,4.68,10.93,8.37,17.69,8.37,4.63,0,9-.89,13.22-1.75,9.71-1.98,19.75-4.03,30.79,5.18,6.39,5.33,10.92,11.57,14.56,16.59,3.53,4.87,6.87,9.46,9.44,9.46,3.19,0,7.05-3.96,10.46-7.45,3.43-3.52,6.67-6.84,10.64-8.16,8.52-2.84,14.5-.06,15.16.27l18.94,9.47h-21.18c-.09,0-4.27.21-7.18,4.57-.73,1.1-1.59,2.81-2.5,4.63-3.41,6.83-9.37,18.75-21.72,18.75-1.93,0-4.01-.29-6.26-.93-7.47-2.13-12.94-6.63-17.35-10.24-6.82-5.6-9.43-7.21-14.2-4.83-3.96,1.98-7.43,4.72-10.79,7.38-7.46,5.9-15.92,12.59-29.09,8.83-5.5-1.57-9.66-3.6-13.32-5.39-7.05-3.44-10.93-5.34-19.62-1.62-9.48,4.07-18.6,16.01-23.82,25.47v52.31c6.47,3.35,11.85,9.73,10.26,19.04,1.32,1.54,2.12,3.52,2.17,5.63,2.56,1.49,4.32,4.22,4.45,7.35,2.65,1.56,4.44,4.44,4.44,7.74,0,1.21-.24,2.39-.7,3.47,8.39,13.91,18.07,34.1,21.31,57.04,15.62,7.04,28.91,42.37,44.66,87.8,3.81,10.99,7.26,20.95,10.23,28.35,10.42-41.22,24.77-73.46,33.73-91.3-2.42-2.67-3.82-6.19-3.82-9.92s1.55-7.57,4.18-10.28c-.02-.21-.03-.43-.03-.64,0-2.82,1.74-5.23,4.55-6.64v-69.87c-.24-.5-.42-1.03-.54-1.58l-6.7-2.17,7.13-3.24c.6-2.84,3.13-4.98,6.15-4.98s5.55,2.14,6.15,4.98l6.1,2.77c2.12.12,4.43.44,6.92,1.06,6.21,1.55,10.44,4.79,14.17,7.64,3.96,3.03,6.36,4.75,9.7,4.75,2.66,0,5.13-.5,7.75-1.04,6.11-1.25,13.05-2.66,20.54,3.59,4.12,3.43,6.98,7.37,9.28,10.55,1.36,1.88,3.43,4.72,4.32,5.03,1.06-.01,3.5-2.52,4.96-4.01,2.18-2.23,4.43-4.54,7.32-5.51,5.85-1.94,10-.12,10.78.27l22.35,11.14-24.51-1.66c-.38.05-1.8.33-2.88,1.95-.39.58-.89,1.58-1.42,2.64-2.48,4.97-7.65,15.3-19.44,11.93-4.97-1.42-8.5-4.32-11.35-6.66-4.22-3.46-4.92-3.6-6.64-2.74-2.25,1.13-4.21,2.68-6.29,4.32-4.71,3.73-10.56,8.36-19.63,5.77-3.55-1.01-6.29-2.36-8.5-3.44-4.31-2.11-5.92-2.89-10.45-.95-5.03,2.16-9.98,8.39-13.18,13.88v15.53c2.84,1.41,4.61,3.83,4.61,6.67,0,.22,0,.43-.03.64,2.63,2.71,4.18,6.38,4.18,10.28s-1.4,7.25-3.82,9.92c12.91,25.72,38.92,85.27,45.02,157.78h70.85l-1.84,3.87,34.49,32.36ZM103.9,596.58h546.41l-17.3-16.23h-70.21l-.33-4.64c-5.47-76.44-34.08-138.87-46.13-162.17l-.22-.43-.23.44c-9.14,17.68-26.12,54.49-37.09,102.42l-9.87,43.16v-39.58h-1.24l-1.4-2.68c-3.97-7.58-8.87-21.71-14.54-38.06-10.29-29.68-25.72-74.2-38.49-81.54h-5.69l-.47-4.47c-2.59-24.34-13.45-45.88-22.1-59.66l-2.53-4.03,1.23-.86h-30.46l1.24.88-2.52,4.01c-1.69,2.69-3.46,5.68-5.24,8.93l4.87,2.43-5.96-.4c-6.97,13.13-13.79,30.11-15.77,48.71l-.48,4.47h-5.72c-12.8,7.34-28.25,51.96-38.55,81.7-5.64,16.28-10.5,30.34-14.45,37.89l-1.4,2.69h-1.24v39.52l-9.87-43.14c-10.97-47.91-27.94-84.71-37.08-102.38l-.23-.45-.24.46c-12.05,23.28-40.66,85.69-46.13,162.17l-.33,4.64h-87.52l17.28,16.21ZM231.8,412.58c8.96,17.83,23.3,50.05,33.72,91.26,2.94-7.36,6.36-17.25,10.14-28.15,15.77-45.56,29.08-80.96,44.75-87.99,2.06-14.65,6.85-29.51,14.31-44.37l-7.64-.52c-.38.05-1.8.33-2.88,1.95-.39.58-.89,1.58-1.42,2.64-2.48,4.97-7.65,15.3-19.44,11.93-4.97-1.42-8.5-4.32-11.35-6.66-4.22-3.46-4.92-3.6-6.64-2.74-2.25,1.13-4.21,2.68-6.29,4.32-4.71,3.73-10.57,8.36-19.62,5.77-3.55-1.01-6.29-2.36-8.5-3.44-4.31-2.11-5.92-2.9-10.45-.95-5.03,2.16-9.98,8.39-13.18,13.88v15.12c2.6,1.43,4.17,3.75,4.17,6.45,0,.41-.04.81-.11,1.2,2.67,2.71,4.27,6.41,4.27,10.36,0,3.73-1.4,7.24-3.82,9.92ZM220.85,397.6l-1.65.6c-1.88.68-3.14,2.48-3.14,4.47,0,1.75.96,3.36,2.49,4.2l2.28,1.24,2.3-1.25c1.54-.84,2.5-2.44,2.5-4.2,0-1.99-1.26-3.79-3.14-4.47l-1.63-.59ZM516.11,397.41l-1.99.92c-1.69.78-2.78,2.47-2.78,4.33,0,1.75.96,3.36,2.5,4.2l2.27,1.23,2.3-1.24c1.54-.83,2.49-2.44,2.49-4.19,0-1.85-1.09-3.55-2.78-4.33l-1.99-.91ZM225.2,321.97v33.31c3.07-3.53,6.9-6.92,11.33-8.82,8.74-3.75,13.85-1.25,18.78,1.16,2.05,1,4.16,2.03,6.86,2.81,3.96,1.13,6.13-.41,10.67-4,2.27-1.8,4.84-3.83,8.02-5.42,4.18-2.09,7.71-1.78,10.7-.53-1.54-2-3.29-4.03-5.39-5.78-3.65-3.05-6.36-2.65-12.14-1.47-2.85.58-6.08,1.24-9.75,1.24-6.89,0-11.61-3.62-15.78-6.81-3.25-2.49-6.31-4.83-10.52-5.88-6.05-1.51-10.51-.58-12.78.19ZM520.04,321.96v33.31c3.07-3.53,6.91-6.92,11.33-8.82,8.75-3.75,13.85-1.25,18.79,1.16,2.05,1,4.16,2.03,6.86,2.81,3.96,1.13,6.13-.41,10.67-4,2.27-1.8,4.84-3.83,8.01-5.42,4.18-2.09,7.71-1.78,10.7-.53-1.54-2-3.29-4.02-5.39-5.78-3.66-3.05-6.36-2.65-12.14-1.47-2.85.58-6.08,1.24-9.75,1.24-6.89,0-11.61-3.62-15.78-6.81-3.25-2.49-6.31-4.83-10.52-5.88-6.05-1.51-10.51-.58-12.78.19ZM357.98,320.9l10.4,6.59,10.55-6.59h-20.95ZM361.85,312.54l6.66,3.09,6.61-3.08-2.36-.69,1.7-4.95c1.82-5.3-.2-9.08-6-11.26-5.62,2.14-7.61,5.97-5.91,11.38l1.53,4.88-2.23.65ZM372.17,155.37v64.97c5.28-7.33,12.98-15.86,22.32-19.87,12.9-5.53,20.21-1.95,27.95,1.83,3.45,1.69,7.02,3.43,11.68,4.76,7.88,2.25,12.33-.87,20.15-7.05,3.58-2.83,7.64-6.04,12.52-8.48,10.97-5.48,18.43.64,25.01,6.05,4.07,3.34,8.28,6.79,13.75,8.36,5.87,1.68,9.35-.65,13.12-6.84-3.47,2.93-7.5,5.31-12.24,5.31-7.67,0-12.46-6.6-17.54-13.59-3.49-4.81-7.44-10.25-12.88-14.78-7.35-6.13-13.33-4.91-22.39-3.06-4.49.92-9.58,1.95-15.22,1.95-10.15,0-17.08-5.3-23.77-10.43-5.3-4.06-10.78-8.26-18.25-10.13-12.13-3.03-20.67-.48-24.21,1.01Z"/>
</svg>