<?xml version="1.0" encoding="UTF-8"?>
<svg id="_x32_" xmlns="http://www.w3.org/2000/svg" version="1.1" viewBox="0 0 800 800">
  <!-- Generator: Adobe Illustrator 29.8.2, SVG Export Plug-In . SVG Version: 2.1.1 Build 3)  -->
  <defs>
    <style>
      .st0 {
        fill: #f25135;
      }
    </style>
  </defs>
  <path class="st0" d="M647.87,329.49c1.59-8.55,2.39-17.14,2.39-25.66,0-61.54-39.03-115.34-96.33-134.98-21.32-66.7-82.9-112.26-153.93-112.26s-132.64,45.57-153.93,112.26c-57.33,19.62-96.33,73.44-96.33,134.98,0,8.51.8,17.1,2.37,25.66-33.29,30.6-52.11,73.17-52.11,118.76,0,89.23,72.58,161.81,161.81,161.81,17.73,0,35.05-2.85,51.69-8.47,19.35,13.71,41.69,22.57,65.04,25.97v115.85h42.93v-115.85c23.35-3.4,45.69-12.26,65.04-25.97,16.62,5.62,33.96,8.47,51.69,8.47,89.23,0,161.81-72.58,161.81-161.81,0-45.59-18.84-88.16-52.13-118.76ZM538.19,567.14c-16.22,0-31.96-3.23-46.85-9.6l-12.2-5.24-10.15,8.59c-16.52,14-36.91,22.6-58.27,24.78v-56.17l83.9-95.87-16.16-14.13-67.74,77.43v-79.06l67.66-77.34-16.16-14.13-51.5,58.86v-121.19h-21.46v121.21l-51.52-58.88-16.16,14.13,67.68,77.34v79.06l-67.74-77.43-16.16,14.13,83.9,95.87v56.17c-21.38-2.18-41.75-10.77-58.29-24.78l-10.12-8.59-12.22,5.24c-14.86,6.37-30.62,9.6-46.82,9.6-65.56,0-118.89-53.32-118.89-118.89,0-36.91,16.85-71.14,46.22-93.9l11.49-8.93-4-13.96c-2.64-9.18-3.96-18.49-3.96-27.63,0-46.07,31.25-85.94,76-96.94l12.74-3.14,3.02-12.77c12.74-53.87,60.26-91.47,115.57-91.47s102.83,37.6,115.55,91.47l3.02,12.77,12.74,3.14c44.75,11,76.02,50.87,76.02,96.94,0,9.14-1.34,18.44-3.98,27.63l-4,13.96,11.49,8.93c29.39,22.76,46.24,56.99,46.24,93.9,0,65.56-53.35,118.88-118.89,118.88Z"/>
</svg>